<?xml version="1.0" encoding="UTF-8"?>
<svg id="_레이어_1" xmlns="http://www.w3.org/2000/svg" version="1.1" viewBox="0 0 500 248">
  <!-- Generator: Adobe Illustrator 29.1.0, SVG Export Plug-In . SVG Version: 2.1.0 Build 142)  -->
  <defs>
    <style>
      .st1 {
        fill: none;
        stroke: #cf121b;
        stroke-linecap: round;
        stroke-miterlimit: 10;
        stroke-width: .9px;
      }
    </style>
  </defs>
  <path class="st0" d="M64.5 48h98.6v39.2H64.5Z" />
  <path class="st0" d="M108.1,87.2v59.6c18.6,0,47.6-1.6,77.4-9.4v36c-30.8,9.4-68.4,12.6-121,12.6v-98.8h43.6Z" />
  <path class="st0" d="M227.5 142L227.5 220L185.5 220L185.5 173.4L185.5 137.4L185.5 28L227.5 28L227.5 98L227.5 142z" />
  <path class="st0" d="M227.5 98h22v44H227.5Z" />
  <path class="st0" d="M331.9 101L331.9 85.6L265.5 85.6L265.5 48L369.7 48L369.7 101L331.9 101z" />
  <path class="st0" d="M266.5 101h103.2v33.6H266.5Z" />
  <path class="st0" d="M307.3,134.6v17.4c33.4,0,61.2-2.6,85.2-8v35.6c-22.2,6.8-55.6,10.4-126,10.4v-55.4h40.8Z" />
  <path class="st0" d="M392.5 144L392.5 28L435.5 28L435.5 220L392.5 220L392.5 179.6L392.5 144z" />
  <path class="st1" d="M87.8,72c2.7,0,5-2.2,5-5s-2.2-5-5-5-5,2.2-5,5,2.3,5,5,5Z"/>
  <path class="st1" d="M87.8,88c2.7,0,5-2.2,5-5s-2.2-5-5-5-5,2.2-5,5,2.3,5,5,5Z"/>
  <path class="st1" d="M207,47c2.7,0,5-2.2,5-5s-2.2-5-5-5-5,2.2-5,5,2.3,5,5,5Z"/>
  <path class="st1" d="M226.6,124c2.7,0,5-2.2,5-5s-2.2-5-5-5-5,2.2-5,5,2.3,5,5,5Z"/>
  <path class="st1" d="M280.3,70.5c2.7,0,5-2.2,5-5s-2.2-5-5-5-5,2.2-5,5,2.3,5,5,5Z"/>
  <path class="st1" d="M285.8,123.2c2.7,0,5-2.2,5-5s-2.2-5-5-5-5,2.2-5,5,2.3,5,5,5Z"/>
  <path class="st1" d="M285.8,136.7c2.7,0,5-2.2,5-5s-2.2-5-5-5-5,2.2-5,5,2.3,5,5,5Z"/>
  <path class="st1" d="M413.3,46.5c2.7,0,5-2.2,5-5s-2.2-5-5-5-5,2.2-5,5,2.3,5,5,5Z"/>
</svg>