<?xml version="1.0" encoding="utf-8"?>
<!-- Generator: Adobe Illustrator 26.5.3, SVG Export Plug-In . SVG Version: 6.00 Build 0)  -->
<svg version="1.1" id="_레이어_1" xmlns="http://www.w3.org/2000/svg" xmlns:xlink="http://www.w3.org/1999/xlink" x="0px"
	 y="0px" width="500px" height="248px" viewBox="0 0 500 248" style="enable-background:new 0 0 500 248;" xml:space="preserve">
<style type="text/css">
	.st1{fill:none;stroke:#CF121B;stroke-width:0.9;stroke-linecap:round;stroke-miterlimit:10;}
</style>
  <path class="st0" d="M86.5 69.4h25.8v36.4H86.5Z" />
  <path class="st0" d="M145.9 69.4h25.8v36.4H145.9Z" />
  <path class="st0" d="M112.3 79.7h33.6v18.4H112.3Z" />
  <path class="st0" d="M86.5 105.6h85.2v18.4H86.5Z" />
  <path class="st0" d="M115.9 151L72.1 151L72.1 130L186.1 130L186.1 151L142.3 151z" />
  <path class="st0" d="M115.9 151h26.4v30H115.9Z" />
  <path class="st0" d="M265.7 99.3L265.7 95.2L205.9 95.2L205.9 74.8L290.9 74.8L290.9 99.3z" />
  <path class="st0" d="M207.1 99.3h83.8v18.1H207.1Z" />
  <path class="st0" d="M232.3 117.4L232.3 121.5L294.8 121.5L294.8 142L207.1 142L207.1 117.4z" />
  <path class="st0" d="M192.1 150.4h114v22.8H192.1Z" />
  <path class="st0" d="M316.9 78.4h59.2v23.5H316.9Z" />
  <path class="st0" d="M343.1,101.9v35.8c11.2,0,28.6-1,46.4-5.6v21.6c-18.5,5.6-41,7.6-72.6,7.6V102L343.1,101.9L343.1,101.9z" />
  <path class="st0" d="M413.1,153v28.6h-24V66.4h24V87V153z" />
  <path class="st0" d="M426.6,128v6.8h-12.3c-1.9,0-3.4-2.2-3.4-5v-21.4h15.7V128z" />
<path class="st1" d="M99.4,83.6c2.7,0,5-2.2,5-5s-2.2-5-5-5s-5,2.2-5,5S96.7,83.6,99.4,83.6z"/>
<path class="st1" d="M158.8,83.6c2.7,0,5-2.2,5-5s-2.2-5-5-5s-5,2.2-5,5S156.1,83.6,158.8,83.6z"/>
<path class="st1" d="M99.4,96.1c2.7,0,5-2.2,5-5s-2.2-5-5-5s-5,2.2-5,5S96.7,96.1,99.4,96.1z"/>
<path class="st1" d="M99.4,119.8c2.7,0,5-2.2,5-5s-2.2-5-5-5s-5,2.2-5,5S96.7,119.8,99.4,119.8z"/>
<path class="st1" d="M81.5,145.5c2.7,0,5-2.2,5-5s-2.2-5-5-5s-5,2.2-5,5S78.8,145.5,81.5,145.5z"/>
<path class="st1" d="M129.1,155.4c2.7,0,5-2.2,5-5s-2.2-5-5-5s-5,2.2-5,5S126.4,155.4,129.1,155.4z"/>
<path class="st1" d="M215.4,88.6c2.7,0,5-2.2,5-5s-2.2-5-5-5s-5,2.2-5,5S212.7,88.6,215.4,88.6z"/>
<path class="st1" d="M220.4,113.3c2.7,0,5-2.2,5-5s-2.2-5-5-5s-5,2.2-5,5S217.7,113.3,220.4,113.3z"/>
<path class="st1" d="M220.4,124.8c2.7,0,5-2.2,5-5s-2.2-5-5-5s-5,2.2-5,5S217.7,124.8,220.4,124.8z"/>
<path class="st1" d="M202.1,166.2c2.7,0,5-2.2,5-5s-2.2-5-5-5s-5,2.2-5,5S199.4,166.2,202.1,166.2z"/>
<path class="st1" d="M330.1,93.6c2.7,0,5-2.2,5-5s-2.2-5-5-5s-5,2.2-5,5S327.4,93.6,330.1,93.6z"/>
<path class="st1" d="M330.1,106.9c2.7,0,5-2.2,5-5s-2.2-5-5-5s-5,2.2-5,5S327.4,106.9,330.1,106.9z"/>
<path class="st1" d="M402.1,79.8c2.7,0,5-2.2,5-5s-2.2-5-5-5s-5,2.2-5,5S399.4,79.8,402.1,79.8z"/>
<path class="st1" d="M413.7,125.6c2.7,0,5-2.2,5-5s-2.2-5-5-5s-5,2.2-5,5S411,125.6,413.7,125.6z"/>
</svg>
