<?xml version="1.0" encoding="utf-8"?>
<!-- Generator: Adobe Illustrator 26.5.3, SVG Export Plug-In . SVG Version: 6.00 Build 0)  -->
<svg version="1.1" id="_레이어_1" xmlns="http://www.w3.org/2000/svg" xmlns:xlink="http://www.w3.org/1999/xlink" x="0px"
	 y="0px" width="500px" height="248px" viewBox="0 0 500 248" style="enable-background:new 0 0 500 248;" xml:space="preserve">
<style type="text/css">
	.st1{fill:none;stroke:#CF121B;stroke-width:0.9;stroke-linecap:round;stroke-miterlimit:10;}
</style>
<path class="st0" d="M116.3,135c-21.1-3.1-33.4-14.5-33.4-30.8s17.3-32,46.2-32s46.2,12.7,46.2,32s-12.2,27.6-33.2,30.8H116.3z M113.4,109.2
	c3.2,2.6,8,4,15.7,4s12.5-1.3,15.7-4c1.4-1.3,2.3-3,2.3-5s-0.8-3.8-2.3-5.2c-3.2-2.6-8-4-15.7-4s-12.5,1.3-15.7,4
	c-1.4,1.3-2.3,3-2.3,5.2S111.9,107.9,113.4,109.2z"/>
<path class="st0" d="M116.3,135h25.8v14.2h-25.8V135z"/>
<path class="st0" d="M142.1,149.2h44v24h-114v-24h44.2H142.1z"/>
<path class="st0" d="M265.7,99.3v-4.1h-59.8V74.8h85v24.5"/>
<path class="st0" d="M207.1,99.3h83.8v18.1h-83.8L207.1,99.3L207.1,99.3z"/>
<path class="st0" d="M232.3,117.4v4.1h62.5V142h-87.7v-24.6H232.3z"/>
<path class="st0" d="M192.1,150.4h114v22.8h-114V150.4z"/>
<path class="st0" d="M316.9,78.4h59.2v23.5h-59.2V78.4z"/>
<path class="st0" d="M343.1,101.9v35.8c11.2,0,28.6-1,46.4-5.6v21.6c-18.5,5.6-41,7.6-72.6,7.6V102L343.1,101.9L343.1,101.9z"/>
<path class="st0" d="M414.7,134.8v46.8h-25.2v-28V132V66.4h25.2v42V134.8z"/>
<path class="st0" d="M414.7,108.4h13.2v26.4h-13.2V108.4z"/>
<path class="st1" d="M129.1,88.4c2.7,0,5-2.2,5-5s-2.2-5-5-5s-5,2.2-5,5S126.4,88.4,129.1,88.4z"/>
<path class="st1" d="M129.1,141c2.7,0,5-2.2,5-5s-2.2-5-5-5s-5,2.2-5,5S126.4,141,129.1,141z"/>
<path class="st1" d="M81.2,166.8c2.7,0,5-2.2,5-5s-2.2-5-5-5s-5,2.2-5,5S78.5,166.8,81.2,166.8z"/>
<path class="st1" d="M217.8,89.4c2.7,0,5-2.2,5-5s-2.2-5-5-5s-5,2.2-5,5S215.1,89.4,217.8,89.4z"/>
<path class="st1" d="M219.8,111.9c2.7,0,5-2.2,5-5s-2.2-5-5-5s-5,2.2-5,5S217.1,111.9,219.8,111.9z"/>
<path class="st1" d="M219.8,124.8c2.7,0,5-2.2,5-5s-2.2-5-5-5s-5,2.2-5,5S217.1,124.8,219.8,124.8z"/>
<path class="st1" d="M201.6,166.8c2.7,0,5-2.2,5-5s-2.2-5-5-5s-5,2.2-5,5S198.9,166.8,201.6,166.8z"/>
<path class="st1" d="M330,94.4c2.7,0,5-2.2,5-5s-2.2-5-5-5s-5,2.2-5,5S327.3,94.4,330,94.4z"/>
<path class="st1" d="M330,106.9c2.7,0,5-2.2,5-5s-2.2-5-5-5s-5,2.2-5,5S327.3,106.9,330,106.9z"/>
<path class="st1" d="M402.1,79.8c2.7,0,5-2.2,5-5s-2.2-5-5-5s-5,2.2-5,5S399.4,79.8,402.1,79.8z"/>
<path class="st1" d="M414.7,124.8c2.7,0,5-2.2,5-5s-2.2-5-5-5s-5,2.2-5,5S412,124.8,414.7,124.8z"/>
</svg>
