<?xml version="1.0" encoding="UTF-8"?>
<svg id="_레이어_1" xmlns="http://www.w3.org/2000/svg" version="1.1" viewBox="0 0 500 248">
  <defs>
    <style>
      .st0 {
        fill: #000000;
      }
      .st1 {
        fill: none;
        stroke: #cf121b;
        stroke-linecap: round;
        stroke-miterlimit: 10;
        stroke-width: .9px;
      }
    </style>
  </defs>
  <path class="st0" d="M67.5,73.4c-28.9,0-46.2,13.2-46.2,33.1s17.3,33.1,46.2,33.1,46.2-13.1,46.2-33.1-17.3-33.1-46.2-33.1ZM83.2,111.9c-3.1,2.8-8,4.3-15.7,4.3s-12.6-1.6-15.7-4.3c-1.4-1.3-2.3-3.1-2.3-5.4s.8-4,2.3-5.3c3.1-2.8,8-4.3,15.7-4.3s12.6,1.6,15.7,4.3c1.4,1.3,2.3,3.1,2.3,5.3s-.8,4.1-2.3,5.4Z"/>
  <path class="st0" d="M10.5 149.2H124.5V173.2H10.5Z"/>
  <path class="st0" d="M156.2,142.5c-2.8,8.3-6.5,15.7-10.9,22.9l-17.8-14.3c10.8-16.8,15.1-36,15.1-72.8h22.1c-.2,14.8-1,27.1-2.5,37.9l-6,26.3Z"/>
  <path class="st0" d="M162.2 116.2L167.8 126L159 146.9L156.2 142.5Z"/>
  <path class="st0" d="M186.3,150.3c-2.8,7.7-6.1,14.6-10.1,21.1l-19.7-14.2c11.8-17.3,17.8-41.9,17.4-80.2h22.7c-.1,17-1.2,31.6-3.2,44.4l-7.1,28.8Z"/>
  <path class="st0" d="M193.4 121.5L207.3 147.5L195.3 166.5L186.3 150.3Z"/>
  <path class="st0" d="M233.1 153V181.6H209.1V66.4H233.1V87Z"/> 
  <path class="st0" d="M233.1 87H246.3V112.8H233.1Z"/>
  <path class="st0" d="M233.1 127.2H246.3V153H233.1Z"/> 
  <path class="st0" d="M310.7,73.4c-28.9,0-46.2,13.2-46.2,33.1s17.3,33.1,46.2,33.1,46.2-13.1,46.2-33.1-17.3-33.1-46.2-33.1ZM326.4,111.9c-3.1,2.8-8,4.3-15.7,4.3s-12.6-1.6-15.7-4.3c-1.4-1.3-2.3-3.1-2.3-5.4s.8-4,2.3-5.3c3.1-2.8,8-4.3,15.7-4.3s12.6,1.6,15.7,4.3c1.4,1.3,2.3,3.1,2.3,5.3s-.8,4.1-2.3,5.4Z"/>
  <path class="st0" d="M253.7 149.2H367.7V173.2H253.7Z"/>
  <path class="st0" d="M399.4,142.5c-2.8,8.3-6.5,15.7-10.9,22.9l-17.8-14.3c10.8-16.8,15.1-36,15.1-72.8h22.1c-.2,14.8-1,27.1-2.5,37.9l-6,26.3Z"/>
  <path class="st0" d="M405.4 116.2L411 126L402.1 146.9L399.4 142.5Z"/>
  <path class="st0" d="M429.5,150.3c-2.8,7.7-6.1,14.6-10.1,21.1l-19.7-14.2c11.8-17.3,17.8-41.9,17.4-80.2h22.7c-.1,17-1.2,31.6-3.2,44.4l-7.1,28.8Z"/>
  <path class="st0" d="M436.6 121.5L450.5 147.5L438.5 166.5L429.5 150.3Z"/>
  <path class="st0" d="M476.3 153V181.6H452.3V66.4H476.3V87Z"/>
  <path class="st0" d="M476.3 87H489.5V112.8H476.3Z"/>
  <path class="st0" d="M476.3 127.2H489.5V153H476.3Z"/>
  <path class="st1" d="M68.2,89.9c2.7,0,5-2.2,5-5s-2.2-5-5-5-5,2.2-5,5,2.3,5,5,5Z"/>
  <path class="st1" d="M20.7,166.3c2.7,0,5-2.2,5-5s-2.2-5-5-5-5,2.2-5,5,2.3,5,5,5Z"/>
  <path class="st1" d="M152.9,92c2.7,0,5-2.2,5-5s-2.2-5-5-5-5,2.2-5,5,2.3,5,5,5Z"/>
  <path class="st1" d="M156.1,132.4c2.7,0,5-2.2,5-5s-2.2-5-5-5-5,2.2-5,5,2.3,5,5,5Z"/>
  <path class="st1" d="M184.8,91.7c2.7,0,5-2.2,5-5s-2.2-5-5-5-5,2.2-5,5,2.3,5,5,5Z"/>
  <path class="st1" d="M189.2,141.3c2.7,0,5-2.2,5-5s-2.2-5-5-5-5,2.2-5,5,2.3,5,5,5Z"/>
  <path class="st1" d="M221,82.3c2.7,0,5-2.2,5-5s-2.2-5-5-5-5,2.2-5,5,2.3,5,5,5Z"/>
  <path class="st1" d="M232.8,104.3c2.7,0,5-2.2,5-5s-2.2-5-5-5-5,2.2-5,5,2.3,5,5,5Z"/>
  <path class="st1" d="M232.8,145c2.7,0,5-2.2,5-5s-2.2-5-5-5-5,2.2-5,5,2.3,5,5,5Z"/>
  <path class="st1" d="M310.8,89.9c2.7,0,5-2.2,5-5s-2.2-5-5-5-5,2.2-5,5,2.3,5,5,5Z"/>
  <path class="st1" d="M264.8,165.8c2.7,0,5-2.2,5-5s-2.2-5-5-5-5,2.2-5,5,2.3,5,5,5Z"/>
  <path class="st1" d="M396.3,92.8c2.7,0,5-2.2,5-5s-2.2-5-5-5-5,2.2-5,5,2.3,5,5,5Z"/>
  <path class="st1" d="M400.5,132.7c2.7,0,5-2.2,5-5s-2.2-5-5-5-5,2.2-5,5,2.3,5,5,5Z"/>
  <path class="st1" d="M428.2,91.7c2.7,0,5-2.2,5-5s-2.2-5-5-5-5,2.2-5,5,2.3,5,5,5Z"/>
  <path class="st1" d="M431.5,140.5c2.7,0,5-2.2,5-5s-2.2-5-5-5-5,2.2-5,5,2.3,5,5,5Z"/>
  <path class="st1" d="M464.5,81.8c2.7,0,5-2.2,5-5s-2.2-5-5-5-5,2.2-5,5,2.3,5,5,5Z"/>
  <path class="st1" d="M475.7,104.5c2.7,0,5-2.2,5-5s-2.2-5-5-5-5,2.2-5,5,2.3,5,5,5Z"/>
  <path class="st1" d="M475.7,144.9c2.7,0,5-2.2,5-5s-2.2-5-5-5-5,2.2-5,5,2.3,5,5,5Z"/>
</svg>
