<?xml version="1.0" encoding="UTF-8"?>
<svg id="_레이어_1" xmlns="http://www.w3.org/2000/svg" version="1.1" viewBox="0 0 500 248">
  <!-- Generator: Adobe Illustrator 29.1.0, SVG Export Plug-In . SVG Version: 2.1.0 Build 142)  -->
  <defs>
    <style>
      .st1 {
        fill: none;
        stroke: #cf121b;
        stroke-linecap: round;
        stroke-miterlimit: 10;
        stroke-width: .9px;
      }
    </style>
  </defs>
  <path class="st0" d="M73.6 78.4h31v23.5H73.6Z" />
  <path class="st0" d="M97.4,101.9v37.1c1.1-.2,3.7-.5,7.3-1l.6,23c-6.7.8-13.1,1.7-31.7,1.9v-61.1h23.8Z" />
  <path class="st0" d="M108 78.4h35.8v23.5H108Z" />
  <path class="st0" d="M131.7,101.9v37.1c4.9,0,9.8-.4,17.5-1.7v22.2c-12.1,2.9-24.2,3.5-41.2,3.5v-61.1h23.6Z" />
  <path class="st0" d="M173.2 134.8L173.2 181.6L149.2 181.6L149.2 159.5L149.2 137.3L149.2 66.4L173.2 66.4L173.2 108.4L173.2 134.8z" />
  <path class="st0" d="M173.2 108.4h13.2v26.4H173.2Z" />
  <path class="st0" d="M264.2 99.3L264.2 95.2L204.4 95.2L204.4 74.8L289.4 74.8L289.4 99.3L264.2 99.3z" />
  <path class="st0" d="M205.6 99.3h83.8v18.1H205.6Z" />
  <path class="st0" d="M230.8 117.4L230.8 121.5L293.3 121.5L293.3 142L205.6 142L205.6 117.4L230.8 117.4z" />
  <path class="st0" d="M190.6 150.4h114v22.8H190.6Z" />
  <path class="st0" d="M315.4 78.4h59.2v23.5H315.4Z" />
  <path class="st0" d="M341.6,101.9v35.8c11.2,0,28.6-1,46.4-5.6v21.6c-18.5,5.6-41,7.6-72.6,7.6v-59.3h26.2Z" />
  <path class="st0" d="M413.2 134.8L413.2 181.6L388 181.6L388 153.6L388 132L388 66.4L413.2 66.4L413.2 108.4L413.2 134.8z" />
  <path class="st0" d="M413.2 108.4h13.2v26.4H413.2Z" />
  <path class="st1" d="M84.4,95.2c2.7,0,5-2.2,5-5s-2.2-5-5-5-5,2.2-5,5,2.3,5,5,5Z"/>
  <path class="st1" d="M84.4,106.9c2.7,0,5-2.2,5-5s-2.2-5-5-5-5,2.2-5,5,2.3,5,5,5Z"/>
  <path class="st1" d="M119.3,95.2c2.7,0,5-2.2,5-5s-2.2-5-5-5-5,2.2-5,5,2.3,5,5,5Z"/>
  <path class="st1" d="M119.3,108.3c2.7,0,5-2.2,5-5s-2.2-5-5-5-5,2.2-5,5,2.3,5,5,5Z"/>
  <path class="st1" d="M161.2,81.2c2.7,0,5-2.2,5-5s-2.2-5-5-5-5,2.2-5,5,2.3,5,5,5Z"/>
  <path class="st1" d="M172.8,125.6c2.7,0,5-2.2,5-5s-2.2-5-5-5-5,2.2-5,5,2.3,5,5,5Z"/>
  <path class="st1" d="M215,90.2c2.7,0,5-2.2,5-5s-2.2-5-5-5-5,2.2-5,5,2.3,5,5,5Z"/>
  <path class="st1" d="M217.9,113.4c2.7,0,5-2.2,5-5s-2.2-5-5-5-5,2.2-5,5,2.3,5,5,5Z"/>
  <path class="st1" d="M217.9,125.3c2.7,0,5-2.2,5-5s-2.2-5-5-5-5,2.2-5,5,2.3,5,5,5Z"/>
  <path class="st1" d="M200.6,166.2c2.7,0,5-2.2,5-5s-2.2-5-5-5-5,2.2-5,5,2.3,5,5,5Z"/>
  <path class="st1" d="M328.9,95.2c2.7,0,5-2.2,5-5s-2.2-5-5-5-5,2.2-5,5,2.3,5,5,5Z"/>
  <path class="st1" d="M328.9,108.4c2.7,0,5-2.2,5-5s-2.2-5-5-5-5,2.2-5,5,2.3,5,5,5Z"/>
  <path class="st1" d="M400.6,79.8c2.7,0,5-2.2,5-5s-2.2-5-5-5-5,2.2-5,5,2.3,5,5,5Z"/>
  <path class="st1" d="M413.2,125.6c2.7,0,5-2.2,5-5s-2.2-5-5-5-5,2.2-5,5,2.3,5,5,5Z"/>
</svg>