<?xml version="1.0" encoding="utf-8"?>
<!-- Generator: Adobe Illustrator 26.5.3, SVG Export Plug-In . SVG Version: 6.00 Build 0)  -->
<svg version="1.1" id="_레이어_1" xmlns="http://www.w3.org/2000/svg" xmlns:xlink="http://www.w3.org/1999/xlink" x="0px"
	 y="0px" width="500px" height="248px" viewBox="0 0 500 248" style="enable-background:new 0 0 500 248;" xml:space="preserve">
<style type="text/css">
	.st1{fill:none;stroke:#CF121B;stroke-width:0.9;stroke-linecap:round;stroke-miterlimit:10;}
</style>
  <path class="st0" d="M77.8 44.5h42.8v61.5H77.8Z" />
  <path class="st0" d="M176.9 44.5L120.5 44.5L120.5 83.2L176.9 83.2L176.9 106L219.7 106L219.7 83.2L219.7 44.5z" />
  <path class="st0" d="M77.8 106h141.7v35.9H77.8Z" />
  <path class="st0" d="M127.1,141h43v25h-43V141z" />
  <path class="st0" d="M170.1,166h73.4v40h-190v-40h73.6H170.1z" />
  <path class="st0" d="M320.3,158.6c-11.8,14.8-25.8,27.6-41.2,38.4l-27.6-34c30.8-19.8,51.2-43.8,60.8-75.4v-1h-49.2V48h99.8  c-2.4,29-10,55-21.4,77.6L320.3,158.6L320.3,158.6z" />
  <path class="st0" d="M341.5,125.6l36.4,37.4l-25.6,30.4l-32-34.8L341.5,125.6z" />
  <path class="st0" d="M424.5,142v78h-42V28h42v70V142z" />
  <path class="st0" d="M424.5,98h22v44h-22V98z" />
<path class="st1" d="M97.5,66.6c2.7,0,5-2.4,5-5.4c0-3-2.2-5.4-5-5.4s-5,2.4-5,5.4C92.5,64.2,94.8,66.6,97.5,66.6z"/>
<path class="st1" d="M120.5,66.6c2.7,0,5-2.4,5-5.4c0-3-2.2-5.4-5-5.4s-5,2.4-5,5.4C115.5,64.2,117.8,66.6,120.5,66.6z"/>
<path class="st1" d="M100,123.3c2.7,0,5-2.4,5-5.4c0-3-2.2-5.4-5-5.4s-5,2.4-5,5.4C95,121,97.3,123.3,100,123.3z"/>
<path class="st1" d="M148.5,146c2.7,0,5-2.2,5-5s-2.2-5-5-5s-5,2.2-5,5S145.8,146,148.5,146z"/>
<path class="st1" d="M69.3,191c2.7,0,5-2.2,5-5s-2.2-5-5-5s-5,2.2-5,5S66.6,191,69.3,191z"/>
<path class="st1" d="M278.7,71.3c2.7,0,5-2.2,5-5s-2.2-5-5-5s-5,2.2-5,5C273.7,69.1,276,71.3,278.7,71.3z"/>
<path class="st1" d="M331.1,146c2.7,0,5-2.2,5-5s-2.2-5-5-5s-5,2.2-5,5S328.4,146,331.1,146z"/>
<path class="st1" d="M403.1,46.2c2.7,0,5-2.2,5-5s-2.2-5-5-5s-5,2.2-5,5S400.4,46.2,403.1,46.2z"/>
<path class="st1" d="M425.4,124.1c2.7,0,5-2.2,5-5s-2.2-5-5-5s-5,2.2-5,5S422.7,124.1,425.4,124.1z"/>
</svg>
