<?xml version="1.0" encoding="UTF-8"?>
<svg id="_레이어_1" xmlns="http://www.w3.org/2000/svg" version="1.1" viewBox="0 0 500 248">
  <!-- Generator: Adobe Illustrator 29.1.0, SVG Export Plug-In . SVG Version: 2.1.0 Build 142)  -->
  <defs>
    <style>
      .st1 {
        fill: none;
        stroke: #cf121b;
        stroke-linecap: round;
        stroke-miterlimit: 10;
        stroke-width: .9px;
      }
    </style>
  </defs>
  <path class="st0" d="M129.1,73.4c-28.9,0-46.2,13.2-46.2,33.1s17.3,33.1,46.2,33.1,46.2-13.1,46.2-33.1-17.3-33.1-46.2-33.1ZM144.8,111.9c-3.1,2.8-8,4.3-15.7,4.3s-12.6-1.6-15.7-4.3c-1.4-1.3-2.3-3.1-2.3-5.4s.8-4,2.3-5.3c3.1-2.8,8-4.3,15.7-4.3s12.6,1.6,15.7,4.3c1.4,1.3,2.3,3.1,2.3,5.3s-.8,4.1-2.3,5.4Z" /> 
  <path class="st0" d="M72.1 149.2h114v24H72.1Z" /> 
  <path class="st0" d="M204.7 73.1h47.4v18.6H204.7Z" /> 
  <path class="st0" d="M192.7 95.9h70.8v21H192.7Z" /> 
  <path class="st0" d="M228.5,119.6c-18,0-30.4,9.7-30.4,25.1s12.4,25,30.4,25,30.2-9.5,30.2-25-12.2-25.1-30.2-25.1ZM228.5,150.8c-5.8,0-8.5-3-8.5-6.7s2.8-6.7,8.5-6.7,8.5,3,8.5,6.7-2.8,6.7-8.5,6.7Z" /> 
  <path class="st0" d="M294.7 134.8L294.7 181.6L269.5 181.6L269.5 66.4L294.7 66.4L294.7 108.4L294.7 134.8z" /> 
  <path class="st0" d="M294.7 108.4h13.2v26.4H294.7Z" /> 
  <path class="st0" d="M324.7 73.1h47.4v18.6H324.7Z" /> 
  <path class="st0" d="M312.7 95.9h70.8v21H312.7Z" /> 
  <path class="st0" d="M348.5,119.6c-18,0-30.4,9.7-30.4,25.1s12.4,25,30.4,25,30.2-9.5,30.2-25-12.2-25.1-30.2-25.1ZM348.5,150.8c-5.8,0-8.5-3-8.5-6.7s2.8-6.7,8.5-6.7,8.5,3,8.5,6.7-2.8,6.7-8.5,6.7Z" /> 
  <path class="st0" d="M414.7 134.8L414.7 181.6L389.5 181.6L389.5 66.4L414.7 66.4L414.7 108.4L414.7 134.8z" /> 
  <path class="st0" d="M414.7 108.4h13.2v26.4H414.7Z" /> 
  <path class="st1" d="M129.1,90c2.7,0,5-2.2,5-5s-2.2-5-5-5-5,2.2-5,5,2.3,5,5,5Z"/>
  <path class="st1" d="M82.9,166.2c2.7,0,5-2.2,5-5s-2.2-5-5-5-5,2.2-5,5,2.3,5,5,5Z"/>
  <path class="st1" d="M213.1,87.4c2.7,0,5-2.2,5-5s-2.2-5-5-5-5,2.2-5,5,2.3,5,5,5Z"/>
  <path class="st1" d="M202,111.5c2.7,0,5-2.2,5-5s-2.2-5-5-5-5,2.2-5,5,2.3,5,5,5Z"/>
  <path class="st1" d="M228.5,134c2.7,0,5-2.2,5-5s-2.2-5-5-5-5,2.2-5,5,2.3,5,5,5Z"/>
  <path class="st1" d="M282.1,80c2.7,0,5-2.2,5-5s-2.2-5-5-5-5,2.2-5,5,2.3,5,5,5Z"/>
  <path class="st1" d="M294.7,125.4c2.7,0,5-2.2,5-5s-2.2-5-5-5-5,2.2-5,5,2.3,5,5,5Z"/>
  <path class="st1" d="M333.1,87.4c2.7,0,5-2.2,5-5s-2.2-5-5-5-5,2.2-5,5,2.3,5,5,5Z"/>
  <path class="st1" d="M322.8,110.6c2.7,0,5-2.2,5-5s-2.2-5-5-5-5,2.2-5,5,2.3,5,5,5Z"/>
  <path class="st1" d="M348.1,134c2.7,0,5-2.2,5-5s-2.2-5-5-5-5,2.2-5,5,2.3,5,5,5Z"/>
  <path class="st1" d="M402.1,80c2.7,0,5-2.2,5-5s-2.2-5-5-5-5,2.2-5,5,2.3,5,5,5Z"/>
  <path class="st1" d="M414.7,125.4c2.7,0,5-2.2,5-5s-2.2-5-5-5-5,2.2-5,5,2.3,5,5,5Z"/>
</svg>