<?xml version="1.0" encoding="UTF-8"?>
<svg id="_레이어_1" xmlns="http://www.w3.org/2000/svg" version="1.1" viewBox="0 0 500 248">
  <!-- Generator: Adobe Illustrator 29.1.0, SVG Export Plug-In . SVG Version: 2.1.0 Build 142)  -->
  <defs>
    <style>
      .st1 {
        fill: none;
        stroke: #cf121b;
        stroke-linecap: round;
        stroke-miterlimit: 10;
        stroke-width: .9px;
      }
    </style>
  </defs>
  <path class="st0" d="M51.2,138.8c-4.9,10.2-11,19.2-18.5,27.2l-20.3-18.2c17.9-17.6,26-38.4,26.4-72.4l25.8.6c-.4,13.6-1.8,25.7-4.3,36.7l-9.1,26Z" />
  <path class="st0" d="M60.3,112.7l27.7,32.3-16.2,18.8-20.6-25.1,9.1-26Z" />
  <path class="st0" d="M71.8 97h23.4v24H71.8Z" />
  <path class="st0" d="M95.2 97L95.2 66.4L121 66.4L121 181.6L95.2 181.6L95.2 121L95.2 97z" />
  <path class="st0" d="M207.2,97.8v-4h-59.8v-19.7h85v23.6h-25.2Z" />
  <path class="st0" d="M232.4,115.4h-83.8v-17.5h83.8v17.5Z" />
  <path class="st0" d="M173.8,115.4v4h62.4v19.7h-87.6v-23.6h25.2Z" />
  <path class="st0" d="M177.8 139h25.8v11.4H177.8Z" />
  <path class="st0" d="M203.6 150.4L247.6 150.4L247.6 173.2L133.6 173.2L133.6 150.4L177.8 150.4L203.6 150.4z" />
  <path class="st0" d="M291.4,138.8c-4.9,10.2-11,19.2-18.5,27.2l-20.3-18.2c17.9-17.6,26-38.4,26.4-72.4l25.8.6c-.4,13.6-1.8,25.7-4.3,36.7l-9.1,26Z" />
  <path class="st0" d="M300.5,112.7l27.7,32.3-16.2,18.8-20.6-25.1,9.1-26Z" />
  <path class="st0" d="M312.1 97h23.4v24H312.1Z" />
  <path class="st0" d="M335.5 97L335.5 66.4L361.3 66.4L361.3 181.6L335.5 181.6L335.5 121L335.5 97z" />
  <path class="st0" d="M447.4,97.8v-4h-59.8v-19.7h85v23.6h-25.2Z" />
  <path class="st0" d="M472.6,115.4h-83.8v-17.5h83.8v17.5Z" />
  <path class="st0" d="M414.1,115.4v4h62.4v19.7h-87.6v-23.6h25.2Z" />
  <path class="st0" d="M418 139h25.8v11.4H418Z" />
  <path class="st0" d="M443.8 150.4L487.9 150.4L487.9 173.2L373.9 173.2L373.9 150.4L418 150.4L443.8 150.4z" />
  <path class="st1" d="M51.5,90c2.7,0,5-2.2,5-5s-2.2-5-5-5-5,2.2-5,5,2.3,5,5,5Z"/>
  <path class="st1" d="M56,131.5c2.7,0,5-2.2,5-5s-2.2-5-5-5-5,2.2-5,5,2.3,5,5,5Z"/>
  <path class="st1" d="M80.5,113.5c2.7,0,5-2.2,5-5s-2.2-5-5-5-5,2.2-5,5,2.3,5,5,5Z"/>
  <path class="st1" d="M107.9,80.7c2.7,0,5-2.2,5-5s-2.2-5-5-5-5,2.2-5,5,2.3,5,5,5Z"/>
  <path class="st1" d="M157.4,88.9c2.7,0,5-2.2,5-5s-2.2-5-5-5-5,2.2-5,5,2.3,5,5,5Z"/>
  <path class="st1" d="M160.7,111.6c2.7,0,5-2.2,5-5s-2.2-5-5-5-5,2.2-5,5,2.3,5,5,5Z"/>
  <path class="st1" d="M160.7,123.1c2.7,0,5-2.2,5-5s-2.2-5-5-5-5,2.2-5,5,2.3,5,5,5Z"/>
  <path class="st1" d="M190.6,143.8c2.7,0,5-2.2,5-5s-2.2-5-5-5-5,2.2-5,5,2.3,5,5,5Z"/>
  <path class="st1" d="M143.9,166.2c2.7,0,5-2.2,5-5s-2.2-5-5-5-5,2.2-5,5,2.3,5,5,5Z"/>
  <path class="st1" d="M291.2,90.4c2.7,0,5-2.2,5-5s-2.2-5-5-5-5,2.2-5,5,2.3,5,5,5Z"/>
  <path class="st1" d="M296.1,130.7c2.7,0,5-2.2,5-5s-2.2-5-5-5-5,2.2-5,5,2.3,5,5,5Z"/>
  <path class="st1" d="M320.2,113.5c2.7,0,5-2.2,5-5s-2.2-5-5-5-5,2.2-5,5,2.3,5,5,5Z"/>
  <path class="st1" d="M347.9,80.1c2.7,0,5-2.2,5-5s-2.2-5-5-5-5,2.2-5,5,2.3,5,5,5Z"/>
  <path class="st1" d="M397.4,88.7c2.7,0,5-2.2,5-5s-2.2-5-5-5-5,2.2-5,5,2.3,5,5,5Z"/>
  <path class="st1" d="M401.3,111.4c2.7,0,5-2.2,5-5s-2.2-5-5-5-5,2.2-5,5,2.3,5,5,5Z"/>
  <path class="st1" d="M401.3,123.3c2.7,0,5-2.2,5-5s-2.2-5-5-5-5,2.2-5,5,2.3,5,5,5Z"/>
  <path class="st1" d="M430.9,143.5c2.7,0,5-2.2,5-5s-2.2-5-5-5-5,2.2-5,5,2.3,5,5,5Z"/>
  <path class="st1" d="M383.7,166.9c2.7,0,5-2.2,5-5s-2.2-5-5-5-5,2.2-5,5,2.3,5,5,5Z"/>
</svg>