<?xml version="1.0" encoding="UTF-8"?>
<svg id="_레이어_1" xmlns="http://www.w3.org/2000/svg" version="1.1" viewBox="0 0 500 248">
  <!-- Generator: Adobe Illustrator 29.1.0, SVG Export Plug-In . SVG Version: 2.1.0 Build 142)  -->
  <defs>
    <style>
      .st1 {
        fill: none;
        stroke: #cf121b;
        stroke-linecap: round;
        stroke-miterlimit: 10;
        stroke-width: .9px;
      }
    </style>
  </defs>
  <path class="st0" d="M63.2 45.7h38.4v105.6H63.2Z" />
  <path class="st0" d="M127.8 45.7h38.4v105.6H127.8Z" />
  <path class="st0" d="M127.8,121.9h-26.2v-38.4h26.2v38.4Z" />
  <path class="st0" d="M166.2,189.7H63.2v-38.4h103v38.4Z" />
  <path class="st0" d="M226.2 218.7L184.2 218.7L184.2 26.7L226.2 26.7" />
  <path class="st0" d="M226.2 96.7h22v44H226.2Z" />
  <path class="st0" d="M362.6,85.5c.4-1.5.8-3,1.2-4.6,0,0,0,0,0,0,.4-1.5.7-3,1.1-4.5,0-.1,0-.2,0-.3.3-1.4.6-2.9.9-4.4,0-.2,0-.4.1-.6.3-1.4.5-2.7.8-4.1,0-.4.1-.7.2-1.1.2-1.2.4-2.5.6-3.8,0-.6.2-1.2.3-1.7.2-1.1.3-2.2.5-3.2.1-.9.2-1.8.3-2.6.1-.8.2-1.6.3-2.5.2-1.7.4-3.5.5-5.2h-103.6v38.8h51.6v1c-10.4,32-31.6,55.2-63.4,74.6l28,34.6c16-10.6,30.6-23.6,43-38.6l22-32.8c6.4-12,11.5-24.9,15.4-38.8h0s0,0,0,0Z" />
  <path class="st0" d="M347.2,124.3l38.2,37-25.4,30.6-34.8-34.8,22-32.8Z" />
  <path class="st0" d="M391.2 26.7h43v192H391.2Z" />
  <path class="st1" d="M82.5,66.3c2.7,0,5-2.2,5-5s-2.2-5-5-5-5,2.2-5,5,2.3,5,5,5Z"/>
  <path class="st1" d="M147.4,66.3c2.7,0,5-2.2,5-5s-2.2-5-5-5-5,2.2-5,5,2.3,5,5,5Z"/>
  <path class="st1" d="M82.5,108.9c2.7,0,5-2.2,5-5s-2.2-5-5-5-5,2.2-5,5,2.3,5,5,5Z"/>
  <path class="st1" d="M82.5,174.7c2.7,0,5-2.2,5-5s-2.2-5-5-5-5,2.2-5,5,2.3,5,5,5Z"/>
  <path class="st1" d="M205,46.9c2.7,0,5-2.2,5-5s-2.2-5-5-5-5,2.2-5,5,2.3,5,5,5Z"/>
  <path class="st1" d="M225.9,122c2.7,0,5-2.2,5-5s-2.2-5-5-5-5,2.2-5,5,2.3,5,5,5Z"/>
  <path class="st1" d="M281.7,71c2.7,0,5-2.2,5-5s-2.2-5-5-5-5,2.2-5,5,2.3,5,5,5Z"/>
  <path class="st1" d="M339.6,147.9c2.7,0,5-2.2,5-5s-2.2-5-5-5-5,2.2-5,5,2.3,5,5,5Z"/>
  <path class="st1" d="M413.2,46.9c2.7,0,5-2.2,5-5s-2.2-5-5-5-5,2.2-5,5,2.3,5,5,5Z"/>
</svg>