<?xml version="1.0" encoding="UTF-8"?>
<svg id="_레이어_1" xmlns="http://www.w3.org/2000/svg" version="1.1" viewBox="0 0 500 248">
  <!-- Generator: Adobe Illustrator 29.1.0, SVG Export Plug-In . SVG Version: 2.1.0 Build 142)  -->
  <defs>
    <style>
      .st1 {
        fill: none;
        stroke: #cf121b;
        stroke-linecap: round;
        stroke-miterlimit: 10;
        stroke-width: .9px;
      }
    </style>
  </defs>
  <path class="st0" d="M128.3,158.6c-11.8,14.8-25.8,27.6-41.2,38.4l-27.6-34c30.8-19.8,51.2-43.8,60.8-75.4v-1h-49.2v-38.6h99.8c-2.4,29-10,55-21.4,77.6l-21.2,33Z" />
  <path class="st0" d="M149.5 125.6L185.9 163L160.3 193.4L128.3 158.6L149.5 125.6z" />
  <path class="st0" d="M232.5 142L232.5 220L190.5 220L190.5 28L232.5 28L232.5 98L232.5 142z" />
  <path class="st0" d="M232.5 98h22v44H232.5Z" />
  <path class="st0" d="M336.9 101L336.9 85.6L270.5 85.6L270.5 48L374.7 48L374.7 101L336.9 101z" />
  <path class="st0" d="M271.5 101h103.2v33.6H271.5Z" />
  <path class="st0" d="M397.5,179.6c-22.2,6.8-55.6,10.4-126,10.4v-55.4h40.8v17.4c33.4,0,61.2-2.6,85.2-8v35.6Z" />
  <path class="st0" d="M397.5 144L397.5 28L440.5 28L440.5 220L397.5 220L397.5 179.6" />
  <path class="st1" d="M84.6,72.4c2.7,0,5-2.2,5-5s-2.2-5-5-5-5,2.2-5,5,2.3,5,5,5Z"/>
  <path class="st1" d="M139,147.2c2.7,0,5-2.2,5-5s-2.2-5-5-5-5,2.2-5,5,2.3,5,5,5Z"/>
  <path class="st1" d="M211.5,46.2c2.7,0,5-2.2,5-5s-2.2-5-5-5-5,2.2-5,5,2.3,5,5,5Z"/>
  <path class="st1" d="M232.7,123.4c2.7,0,5-2.2,5-5s-2.2-5-5-5-5,2.2-5,5,2.3,5,5,5Z"/>
  <path class="st1" d="M284.6,71c2.7,0,5-2.2,5-5s-2.2-5-5-5-5,2.2-5,5,2.3,5,5,5Z"/>
  <path class="st1" d="M291.6,121.1c2.7,0,5-2.2,5-5s-2.2-5-5-5-5,2.2-5,5,2.3,5,5,5Z"/>
  <path class="st1" d="M291.6,136.5c2.7,0,5-2.2,5-5s-2.2-5-5-5-5,2.2-5,5,2.3,5,5,5Z"/>
  <path class="st1" d="M418.7,48.3c2.7,0,5-2.2,5-5s-2.2-5-5-5-5,2.2-5,5,2.3,5,5,5Z"/>
</svg>