<?xml version="1.0" encoding="UTF-8"?>
<svg id="_레이어_1" xmlns="http://www.w3.org/2000/svg" version="1.1" viewBox="0 0 500 248">
  <!-- Generator: Adobe Illustrator 29.1.0, SVG Export Plug-In . SVG Version: 2.1.0 Build 142)  -->
  <defs>
    <style>
      .st1 {
        fill: none;
        stroke: #cf121b;
        stroke-linecap: round;
        stroke-miterlimit: 10;
        stroke-width: .9px;
      }
    </style>
  </defs>
  <path class="st0" d="M162.5,153.6V49h34.8v104.6h-34.8Z" />
  <path class="st0" d="M209.7,153.6V49h34.8v104.6h-34.8Z" />
  <path class="st0" d="M197.3,86.9h12.4v36.4h-12.4v-36.4Z" />
  <path class="st0" d="M162.5,153.6h82v36.4h-82v-36.4Z" />
  <path class="st0" d="M290.5 138L290.5 213L253.5 213L253.5 35L290.5 35L290.5 96L290.5 138z" />
  <path class="st0" d="M290.5 96h9v42H290.5Z" />
  <path class="st0" d="M299.5 96L299.5 28L337.5 28L337.5 220L299.5 220L299.5 138L299.5 96z" />
  <path class="st1" d="M179.5,67.1c2.7,0,5-2.2,5-5s-2.2-5-5-5-5,2.2-5,5,2.3,5,5,5Z"/>
  <path class="st1" d="M227.1,67.1c2.7,0,5-2.2,5-5s-2.2-5-5-5-5,2.2-5,5,2.3,5,5,5Z"/>
  <path class="st1" d="M180.7,110.1c2.7,0,5-2.2,5-5s-2.2-5-5-5-5,2.2-5,5,2.3,5,5,5Z"/>
  <path class="st1" d="M180.7,175.9c2.7,0,5-2.2,5-5s-2.2-5-5-5-5,2.2-5,5,2.3,5,5,5Z"/>
  <path class="st1" d="M272,53c2.7,0,5-2.2,5-5s-2.2-5-5-5-5,2.2-5,5,2.3,5,5,5Z"/>
  <path class="st1" d="M287.9,120.8c2.7,0,5-2.2,5-5s-2.2-5-5-5-5,2.2-5,5,2.3,5,5,5Z"/>
  <path class="st1" d="M318.1,46c2.7,0,5-2.2,5-5s-2.2-5-5-5-5,2.2-5,5,2.3,5,5,5Z"/>
</svg>