<?xml version="1.0" encoding="UTF-8"?>
<svg id="_레이어_1" xmlns="http://www.w3.org/2000/svg" version="1.1" viewBox="0 0 500 248">
  <!-- Generator: Adobe Illustrator 29.1.0, SVG Export Plug-In . SVG Version: 2.1.0 Build 142)  -->
  <defs>
    <style>
      .st1 {
        fill: none;
        stroke: #cf121b;
        stroke-linecap: round;
        stroke-miterlimit: 10;
        stroke-width: .9px;
      }
    </style>
  </defs>
  <path class="st0" d="M116,150.4c-7.6,16.2-17,30.6-28.4,43.6l-33.6-30.2c28.2-29.4,40.8-63.2,41.6-120.6l42.4,1c-.6,23-3,43.6-7.2,62.2l-14.8,44Z" /> 
  <path class="st0" d="M176 160.8L149.4 192L116 150.4L130.8 106.4" /> 
  <path class="st0" d="M153 64.4h39v35H153Z" /> 
  <path class="st0" d="M159 140.4L159 117.4L192 117.4L192 152.4L159 152.4L159 140.4z" /> 
  <path class="st0" d="M192 64.4L192 28L235 28L235 220L192 220L192 152.4L192 64.4z" /> 
  <path class="st0" d="M300 33h102.6v29.2H300Z" /> 
  <path class="st0" d="M352.4,141c-22,9-48,15.4-76.6,19l-14.8-35c50.4-5.8,77.6-13.2,98-22.8v-1l-20.8,1h-59.2v-32.8h141.6c-2.6,18.6-12.4,34.6-27.6,47.6l-40.6,24Z" /> 
  <path class="st0" d="M393 117L440.6 127.8L425.6 159.6L352.4 141L393 117z" /> 
  <path class="st0" d="M256 169h190v37H256Z" />
  <path class="st1" d="M115.5,61.7c2.7,0,5-2.2,5-5s-2.2-5-5-5-5,2.2-5,5,2.3,5,5,5Z"/>
  <path class="st1" d="M123.3,133.3c2.7,0,5-2.2,5-5s-2.2-5-5-5-5,2.2-5,5,2.3,5,5,5Z"/>
  <path class="st1" d="M164.8,86.8c2.7,0,5-2.2,5-5s-2.2-5-5-5-5,2.2-5,5,2.3,5,5,5Z"/>
  <path class="st1" d="M171.1,138.8c2.7,0,5-2.2,5-5s-2.2-5-5-5-5,2.2-5,5,2.3,5,5,5Z"/>
  <path class="st1" d="M212.2,46.5c2.7,0,5-2.2,5-5s-2.2-5-5-5-5,2.2-5,5,2.3,5,5,5Z"/>
  <path class="st1" d="M312.3,51.3c2.7,0,5-2.2,5-5s-2.2-5-5-5-5,2.2-5,5,2.3,5,5,5Z"/>
  <path class="st1" d="M294,90.1c2.7,0,5-2.2,5-5s-2.2-5-5-5-5,2.2-5,5,2.3,5,5,5Z"/>
  <path class="st1" d="M375,132.3c2.7,0,5-2.2,5-5s-2.2-5-5-5-5,2.2-5,5,2.3,5,5,5Z"/>
  <path class="st1" d="M269.7,193c2.7,0,5-2.2,5-5s-2.2-5-5-5-5,2.2-5,5,2.3,5,5,5Z"/>
</svg>