<?xml version="1.0" encoding="utf-8"?>
<!-- Generator: Adobe Illustrator 26.5.3, SVG Export Plug-In . SVG Version: 6.00 Build 0)  -->
<svg version="1.1" id="_레이어_1" xmlns="http://www.w3.org/2000/svg" xmlns:xlink="http://www.w3.org/1999/xlink" x="0px"
	 y="0px" width="500px" height="248px" viewBox="0 0 500 248" style="enable-background:new 0 0 500 248;" xml:space="preserve">
<style type="text/css">
	.st1{fill:none;stroke:#CF121B;stroke-width:0.9;stroke-linecap:round;stroke-miterlimit:10;}
</style>
<path class="st0" d="M113.3,104.3V68H87.5l-0.1,36.3H113.3z"/>
<path class="st0" d="M172.7,104.3V68h-25.8l-0.1,36.3H172.7z"/>
<path class="st0" d="M146.8,78.4l-33.5-0.1v18.4l33.5,0.1V78.4z"/>
<path class="st0" d="M172.6,104.3H87.4v18.3l85.2,0.1V104.3z"/>
<path class="st0" d="M116.8,149.6H73v-21l114,0.1v21h-43.8L116.8,149.6z"/>
<path class="st0" d="M116.8,179.7l0.1-30l26.4,0l-0.1,30L116.8,179.7z"/>
<path class="st0" d="M266.7,98.5v-4.1h-59.8V74h85v24.5"/>
<path class="st0" d="M208.1,98.5h83.8v18.1h-83.8L208.1,98.5L208.1,98.5z"/>
<path class="st0" d="M233.3,116.6v4.1h62.5v20.5h-87.7v-24.6H233.3z"/>
<path class="st0" d="M193.1,149.6h114v22.8h-114V149.6z"/>
<path class="st0" d="M385.9,98v-4.1h-59.8V73.5h85V98"/>
<path class="st0" d="M327.3,98h83.8v18.1h-83.8V98L327.3,98z"/>
<path class="st0" d="M352.5,116.1v4.1H415v20.5h-87.7v-24.6H352.5z"/>
<path class="st0" d="M312.3,149.1h114v22.8h-114V149.1z"/>
<path class="st1" d="M100.2,82c2.7,0,5-2.2,5-5s-2.2-5-5-5s-5,2.2-5,5S97.5,82,100.2,82z"/>
<path class="st1" d="M159.3,82c2.7,0,5-2.2,5-5s-2.2-5-5-5s-5,2.2-5,5S156.6,82,159.3,82z"/>
<path class="st1" d="M108.1,92.3c2.7,0,5-2.2,5-5s-2.2-5-5-5s-5,2.2-5,5S105.4,92.3,108.1,92.3z"/>
<path class="st1" d="M100.6,116.8c2.7,0,5-2.2,5-5s-2.2-5-5-5s-5,2.2-5,5S97.9,116.8,100.6,116.8z"/>
<path class="st1" d="M83.6,143.8c2.7,0,5-2.2,5-5s-2.2-5-5-5s-5,2.2-5,5S80.9,143.8,83.6,143.8z"/>
<path class="st1" d="M130,154.5c2.7,0,5-2.2,5-5s-2.2-5-5-5s-5,2.2-5,5S127.3,154.5,130,154.5z"/>
<path class="st1" d="M218.8,88.6c2.7,0,5-2.2,5-5s-2.2-5-5-5s-5,2.2-5,5S216.1,88.6,218.8,88.6z"/>
<path class="st1" d="M220.8,111.1c2.7,0,5-2.2,5-5s-2.2-5-5-5s-5,2.2-5,5S218.1,111.1,220.8,111.1z"/>
<path class="st1" d="M220.8,124c2.7,0,5-2.2,5-5s-2.2-5-5-5s-5,2.2-5,5S218.1,124,220.8,124z"/>
<path class="st1" d="M202.6,166c2.7,0,5-2.2,5-5s-2.2-5-5-5s-5,2.2-5,5S199.9,166,202.6,166z"/>
<path class="st1" d="M338,88.1c2.7,0,5-2.2,5-5s-2.2-5-5-5c-2.8,0-5,2.2-5,5S335.3,88.1,338,88.1z"/>
<path class="st1" d="M340,110.6c2.7,0,5-2.2,5-5s-2.2-5-5-5c-2.8,0-5,2.2-5,5S337.3,110.6,340,110.6z"/>
<path class="st1" d="M340,123.5c2.7,0,5-2.2,5-5s-2.2-5-5-5c-2.8,0-5,2.2-5,5S337.3,123.5,340,123.5z"/>
<path class="st1" d="M321.8,165.5c2.7,0,5-2.2,5-5s-2.2-5-5-5c-2.8,0-5,2.2-5,5S319.1,165.5,321.8,165.5z"/>
</svg>
