<?xml version="1.0" encoding="UTF-8"?>
<svg id="_레이어_1" xmlns="http://www.w3.org/2000/svg" version="1.1" viewBox="0 0 500 248">
  <!-- Generator: Adobe Illustrator 29.1.0, SVG Export Plug-In . SVG Version: 2.1.0 Build 142)  -->
  <defs>
    <style>
      .st1 {
        fill: none;
        stroke: #cf121b;
        stroke-linecap: round;
        stroke-miterlimit: 10;
        stroke-width: .9px;
      }
    </style>
  </defs>
  <path class="st0" d="M170,113.4c2.8-13.6,4.8-28.8,5.4-43.8h-99.6v-36.2h143.6c-.6,32.6-4.8,59.8-10,80h-39.4Z" />
  <path class="st0" d="M128 150.4L55 150.4L55 113.4L170 113.4L209.4 113.4L245 113.4L245 150.4L172 150.4L128 150.4z" />
  <path class="st0" d="M128 150.4h44v66H128Z" />
  <path class="st0" d="M280.2 31.6h140.4v34.8H280.2Z" />
  <path class="st0" d="M323.6 66.4L323.6 82.2L424 82.2L424 115.6L280.2 115.6L280.2 66.4L323.6 66.4z" />
  <path class="st0" d="M328 164.4L255 164.4L255 128.4L445 128.4L445 164.4L372 164.4L328 164.4z" />
  <path class="st0" d="M328 164.4h44v52H328Z" />
  <path class="st1" d="M90.1,56c2.7,0,5-2.2,5-5s-2.2-5-5-5-5,2.2-5,5,2.3,5,5,5Z"/>
  <path class="st1" d="M70.9,137c2.7,0,5-2.2,5-5s-2.2-5-5-5-5,2.2-5,5,2.3,5,5,5Z"/>
  <path class="st1" d="M149.2,137c2.7,0,5-2.2,5-5s-2.2-5-5-5-5,2.2-5,5,2.3,5,5,5Z"/>
  <path class="st1" d="M302.6,54.3c2.7,0,5-2.2,5-5s-2.2-5-5-5-5,2.2-5,5,2.3,5,5,5Z"/>
  <path class="st1" d="M302.6,68.1c2.7,0,5-2.2,5-5s-2.2-5-5-5-5,2.2-5,5,2.3,5,5,5Z"/>
  <path class="st1" d="M270.5,150.3c2.7,0,5-2.2,5-5s-2.2-5-5-5-5,2.2-5,5,2.3,5,5,5Z"/>
  <path class="st1" d="M349,150.3c2.7,0,5-2.2,5-5s-2.2-5-5-5-5,2.2-5,5,2.3,5,5,5Z"/>
</svg>