<?xml version="1.0" encoding="utf-8"?>
<!-- Generator: Adobe Illustrator 26.5.3, SVG Export Plug-In . SVG Version: 6.00 Build 0)  -->
<svg version="1.1" id="_레이어_1" xmlns="http://www.w3.org/2000/svg" xmlns:xlink="http://www.w3.org/1999/xlink" x="0px"
	 y="0px" width="500px" height="248px" viewBox="0 0 500 248" style="enable-background:new 0 0 500 248;" xml:space="preserve">
<style type="text/css">
	.st1{fill:none;stroke:#CF121B;stroke-width:0.9;stroke-linecap:round;stroke-miterlimit:10;}
</style>
<path class="st0" d="M100.1,134.7c-13-3.5-22-13.1-22-28.9s14.8-30.4,34-30.4s33.8,10.1,33.8,30.4s-8.6,25.1-21.2,28.7L100.1,134.7z
	 M102.3,105.8c0,6.7,2.8,10.9,9.7,10.9s9.8-4.2,9.8-10.9s-2.9-10.9-9.8-10.9S102.3,99.1,102.3,105.8z"/>
<path class="st0" d="M124.7,140.9v5.8c0,2.7-2.1,4.9-4.8,5l-19.8,0.9v-17.9l24.6-0.2v6.5L124.7,140.9z"/>
<path class="st0" d="M124.7,145.5c8.6-0.6,16.7-1.3,24.1-2.4l1.5,16.9c0.3,3.5-2.2,6.6-5.6,7.1c-17.7,2.4-38.8,3.6-63.7,3.8
	c-3.3,0-6.1-2.4-6.5-5.7l-1.4-10.9c-0.5-3.9,2.5-7.3,6.4-7.3c7.2,0,14-0.1,20.6-0.2l24.6-1.1V145.5z"/>
<path class="st0" d="M154.3,66.4H173c3.6,0,6.5,2.9,6.5,6.5V175c0,3.6-2.9,6.5-6.5,6.5h-18.7V66.4L154.3,66.4z"/>
<path class="st0" d="M253.5,80.1v12.7h-46.4V73.6H247C250.6,73.6,253.5,76.5,253.5,80.1z"/>
<path class="st0" d="M235.4,150.2c-8,7.3-16.9,13.1-25.6,17.2s-6.6,0.4-8.3-2.4l-10-15.8c19.4-7.3,34.6-18.1,40.8-29.9v-0.6H198v-14.1
	c0-3.6,2.9-6.5,6.5-6.5h57.8c-1.2,13.2-5.8,24.7-12.1,34.8L235.4,150.2L235.4,150.2z"/>
<path class="st0" d="M250.2,132.8l20,16.7l-9.8,12.9c-2.3,3-6.6,3.5-9.4,1l-15.6-13.2L250.2,132.8L250.2,132.8z"/>
<path class="st0" d="M273.7,66.4H293c3.6,0,6.5,2.9,6.5,6.5V175c0,3.6-2.9,6.5-6.5,6.5h-19.3V66.4L273.7,66.4z"/>
<path class="st0" d="M316.9,78.4h54.2c2.8,0,5,2.2,5,5v18.5h-59.2V78.4z"/>
<path class="st0" d="M343.1,101.9v42.5c11.2,0,28.6-0.7,46.4-4v15.5c-17.2,3.7-37.9,5.2-66,5.4c-3.6,0-6.6-2.1-6.6-4.7V102L343.1,101.9
	L343.1,101.9z"/>
<path class="st0" d="M389.5,132V66.4h18.7c3.6,0,6.5,2.9,6.5,6.5v108.7h-25.2V132z"/>
<path class="st0" d="M427.9,128v6.8h-18.2c-2.8,0-5-2.2-5-5v-21.4h23.2V128z"/>
<path class="st1" d="M112,90.5c2.7,0,5-2.2,5-5s-2.2-5-5-5s-5,2.2-5,5S109.3,90.5,112,90.5z"/>
<path class="st1" d="M112.1,140.5c2.7,0,5-2.2,5-5s-2.2-5-5-5s-5,2.2-5,5S109.4,140.5,112.1,140.5z"/>
<path class="st1" d="M84.4,163c2.7,0,5-2.2,5-5s-2.2-5-5-5s-5,2.2-5,5S81.7,163,84.4,163z"/>
<path class="st1" d="M166.9,80.4c2.7,0,5-2.2,5-5s-2.2-5-5-5s-5,2.2-5,5S164.2,80.4,166.9,80.4z"/>
<path class="st1" d="M215.2,88.2c2.7,0,5-2.2,5-5s-2.2-5-5-5s-5,2.2-5,5S212.5,88.2,215.2,88.2z"/>
<path class="st1" d="M208.4,113.1c2.7,0,5-2.2,5-5s-2.2-5-5-5s-5,2.2-5,5S205.7,113.1,208.4,113.1z"/>
<path class="st1" d="M242.5,145.5c2.7,0,5-2.2,5-5s-2.2-5-5-5s-5,2.2-5,5S239.8,145.5,242.5,145.5z"/>
<path class="st1" d="M286.6,80.4c2.7,0,5-2.2,5-5s-2.2-5-5-5s-5,2.2-5,5S283.9,80.4,286.6,80.4z"/>
<path class="st1" d="M329.7,95.2c2.7,0,5-2.2,5-5s-2.2-5-5-5s-5,2.2-5,5S327,95.2,329.7,95.2z"/>
<path class="st1" d="M329.7,108c2.7,0,5-2.2,5-5s-2.2-5-5-5s-5,2.2-5,5S327,108,329.7,108z"/>
<path class="st1" d="M402.1,80.4c2.7,0,5-2.2,5-5s-2.2-5-5-5s-5,2.2-5,5S399.4,80.4,402.1,80.4z"/>
<path class="st1" d="M413.6,124.8c2.7,0,5-2.2,5-5s-2.2-5-5-5s-5,2.2-5,5S410.9,124.8,413.6,124.8z"/>
</svg>
