<?xml version="1.0" encoding="utf-8"?>
<!-- Generator: Adobe Illustrator 26.5.3, SVG Export Plug-In . SVG Version: 6.00 Build 0)  -->
<svg version="1.1" id="_레이어_1" xmlns="http://www.w3.org/2000/svg" xmlns:xlink="http://www.w3.org/1999/xlink" x="0px"
	 y="0px" width="500px" height="248px" viewBox="0 0 500 248" style="enable-background:new 0 0 500 248;" xml:space="preserve">
<style type="text/css">
	.st1{fill:none;stroke:#CF121B;stroke-width:0.9;stroke-linecap:round;stroke-miterlimit:10;}
</style>
<path class="st0" d="M174.3,137c-5.2,40-28.4,58.2-55.8,58.2s-57-23.8-57-76.6S87.1,42,118.5,42s49.4,17.2,55.4,55 M132.3,118.6
	c0-22.6-4-35.6-13.6-35.6s-13.6,13-13.6,35.6s4,35.6,13.6,35.6S132.3,141.2,132.3,118.6z"/>
<path class="st0" d="M192.5,137h-18.2l-0.4-40h18.6V137z"/>
<path class="st0" d="M192.5,97V28h43v192h-43v-83V97z"/>
<path class="st0" d="M259.5,50h49.2c-0.6,64.8-8.8,101.6-26.2,135.2l-30.8-20.8c15.6-23.8,22.2-53.4,22.4-75.8v-0.8h-14.6V50L259.5,50z"/>
<path class="st0" d="M347.9,140c-4.6,25-11.6,45.2-21.6,63.8l-33-20.2c17.8-29.2,24.6-65.4,24.8-94.8v-1h-5.2V50h41.6c0,17.6-0.4,33.6-1.4,48
	L347.9,140L347.9,140z"/>
<path class="st0" d="M361.5,98V35h34v178h-34v-73V98z"/>
<path class="st0" d="M407.7,137.2h-18.2l-0.4-40h18.6V137.2z"/>
<path class="st0" d="M403.5,28h35v192h-35V28z"/>
<path class="st1" d="M118.7,67.5c2.7,0,5-2.2,5-5s-2.2-5-5-5s-5,2.2-5,5C113.7,65.3,116,67.5,118.7,67.5z"/>
<path class="st1" d="M173.4,121.9c2.7,0,5-2.2,5-5s-2.2-5-5-5s-5,2.2-5,5S170.7,121.9,173.4,121.9z"/>
<path class="st1" d="M213.9,46c2.7,0,5-2.2,5-5s-2.2-5-5-5s-5,2.2-5,5S211.2,46,213.9,46z"/>
<path class="st1" d="M269.9,72.6c2.7,0,5-2.2,5-5s-2.2-5-5-5s-5,2.2-5,5S267.2,72.6,269.9,72.6z"/>
<path class="st1" d="M322.3,72.6c2.7,0,5-2.2,5-5s-2.2-5-5-5s-5,2.2-5,5S319.6,72.6,322.3,72.6z"/>
<path class="st1" d="M378.1,52.2c2.7,0,5-2.2,5-5s-2.2-5-5-5s-5,2.2-5,5S375.4,52.2,378.1,52.2z"/>
<path class="st1" d="M395.5,122.6c2.7,0,5-2.2,5-5s-2.2-5-5-5s-5,2.2-5,5S392.8,122.6,395.5,122.6z"/>
<path class="st1" d="M420.9,45.2c2.7,0,5-2.2,5-5s-2.2-5-5-5s-5,2.2-5,5S418.2,45.2,420.9,45.2z"/>
</svg>
