<?xml version="1.0" encoding="UTF-8"?>
<svg id="_레이어_1" xmlns="http://www.w3.org/2000/svg" version="1.1" viewBox="0 0 500 248">
  <!-- Generator: Adobe Illustrator 29.1.0, SVG Export Plug-In . SVG Version: 2.1.0 Build 142)  -->
  <defs>
    <style>
      .st1 {
        fill: none;
        stroke: #cf121b;
        stroke-linecap: round;
        stroke-miterlimit: 10;
        stroke-width: .9px;
      }
    </style>
  </defs>
  <path class="st0" d="M64.5,152.6V47h38.4v105.6h-38.4Z" />
  <path class="st0" d="M129.1,152.6V47h38.4v105.6h-38.4Z" />
  <path class="st0" d="M102.9,84.5h26.2v38.4h-26.2v-38.4Z" />
  <path class="st0" d="M64.5,152.6h103v38.4h-103v-38.4Z" />
  <path class="st0" d="M227.5 142L227.5 220L185.5 220L185.5 28L227.5 28L227.5 98L227.5 142z" />
  <path class="st0" d="M227.5 98h22v44H227.5Z" />
  <path class="st0" d="M266.5,83.6c0-29.6,24-44.6,55.6-44.6s55.4,15,55.4,44.6-24,44.6-55.4,44.6-55.6-15-55.6-44.6ZM305.7,83.6c0,9,4.6,14.4,16.6,14.4s16.4-5.4,16.4-14.4-4.6-14.4-16.4-14.4-16.6,5.4-16.6,14.4Z" />
  <path class="st0" d="M302.5,172.2c-13.2.6-26.8.8-41.2.8l-4.8-38c51.4,0,91.8-1.8,127.2-8.2l3.8,36.4c-13.2,2.6-27.6,4.6-43,6l-42,3Z" />
  <path class="st0" d="M344.5 169.2L344.5 220L302.5 220L302.5 172.2L344.5 169.2z" />
  <path class="st0" d="M393.5 28h42v192H393.5Z" />
  <path class="st1" d="M83.4,65.4c2.7,0,5-2.2,5-5s-2.2-5-5-5-5,2.2-5,5,2.3,5,5,5Z"/>
  <path class="st1" d="M147.6,65.4c2.7,0,5-2.2,5-5s-2.2-5-5-5-5,2.2-5,5,2.3,5,5,5Z"/>
  <path class="st1" d="M83.6,106.7c2.7,0,5-2.2,5-5s-2.2-5-5-5-5,2.2-5,5,2.3,5,5,5Z"/>
  <path class="st1" d="M83.6,177.1c2.7,0,5-2.2,5-5s-2.2-5-5-5-5,2.2-5,5,2.3,5,5,5Z"/>
  <path class="st1" d="M206.1,48.4c2.7,0,5-2.2,5-5s-2.2-5-5-5-5,2.2-5,5,2.3,5,5,5Z"/>
  <path class="st1" d="M227.2,123.3c2.7,0,5-2.2,5-5s-2.2-5-5-5-5,2.2-5,5,2.3,5,5,5Z"/>
  <path class="st1" d="M321,58.2c2.7,0,5-2.2,5-5s-2.2-5-5-5-5,2.2-5,5,2.3,5,5,5Z"/>
  <path class="st1" d="M273.4,157.3c2.7,0,5-2.2,5-5s-2.2-5-5-5-5,2.2-5,5,2.3,5,5,5Z"/>
  <path class="st1" d="M322.5,166.9c2.7,0,5-2.2,5-5s-2.2-5-5-5-5,2.2-5,5,2.3,5,5,5Z"/>
  <path class="st1" d="M414.5,46.8c2.7,0,5-2.2,5-5s-2.2-5-5-5-5,2.2-5,5,2.3,5,5,5Z"/>
</svg>