<?xml version="1.0" encoding="UTF-8"?>
<svg id="_레이어_1" xmlns="http://www.w3.org/2000/svg" version="1.1" viewBox="0 0 500 248">
  <!-- Generator: Adobe Illustrator 29.1.0, SVG Export Plug-In . SVG Version: 2.1.0 Build 142)  -->
  <defs>
    <style>
      .st1 {
        fill: none;
        stroke: #cf121b;
        stroke-linecap: round;
        stroke-miterlimit: 10;
        stroke-width: .9px;
      }
    </style>
  </defs>
  <path class="st0" d="M82.1 39.2h78v31H82.1Z" />
  <path class="st0" d="M171.5 112.2L62.5 112.2L62.5 77.2L178.5 77.2L178.5 112.2L171.5 112.2z" />
  <path class="st0" d="M121.1,116.6c-29.6,0-49.8,16.2-49.8,41.8s20.2,41.6,49.8,41.6,49.8-15.8,49.8-41.6-20.2-41.8-49.8-41.8ZM121.1,168.6c-9.2,0-13.8-5-13.8-11.2s4.6-11.2,13.8-11.2,13.8,5,13.8,11.2-4.4,11.2-13.8,11.2Z" />
  <path class="st0" d="M171.5 107h23v40H171.5Z" />
  <path class="st0" d="M194.5 107L194.5 28L237.5 28L237.5 220L194.5 220L194.5 147L194.5 107z" />
  <path class="st0" d="M333.9 101L333.9 85.6L267.5 85.6L267.5 48L371.7 48L371.7 101L333.9 101z" />
  <path class="st0" d="M268.5 101h103.2v33.6H268.5Z" />
  <path class="st0" d="M309.3,134.6v17.4c33.4,0,61.2-2.6,85.2-8v35.6c-22.2,6.8-55.6,10.4-126,10.4v-55.4h40.8Z" />
  <path class="st0" d="M394.5 144L394.5 28L437.5 28L437.5 220L394.5 220L394.5 179.6" />
  <path class="st1" d="M94.5,59.3c2.7,0,5-2.2,5-5s-2.2-5-5-5-5,2.2-5,5,2.3,5,5,5Z"/>
  <path class="st1" d="M75.4,98.7c2.7,0,5-2.2,5-5s-2.2-5-5-5-5,2.2-5,5,2.3,5,5,5Z"/>
  <path class="st1" d="M121.3,137c2.7,0,5-2.2,5-5s-2.2-5-5-5-5,2.2-5,5,2.3,5,5,5Z"/>
  <path class="st1" d="M178.7,131.3c2.7,0,5-2.2,5-5s-2.2-5-5-5-5,2.2-5,5,2.3,5,5,5Z"/>
  <path class="st1" d="M216,47c2.7,0,5-2.2,5-5s-2.2-5-5-5-5,2.2-5,5,2.3,5,5,5Z"/>
  <path class="st1" d="M282.3,70.2c2.7,0,5-2.2,5-5s-2.2-5-5-5-5,2.2-5,5,2.3,5,5,5Z"/>
  <path class="st1" d="M287.8,121.6c2.7,0,5-2.2,5-5s-2.2-5-5-5-5,2.2-5,5,2.3,5,5,5Z"/>
  <path class="st1" d="M287.8,135.7c2.7,0,5-2.2,5-5s-2.2-5-5-5-5,2.2-5,5,2.3,5,5,5Z"/>
  <path class="st1" d="M415.9,46.5c2.7,0,5-2.2,5-5s-2.2-5-5-5-5,2.2-5,5,2.3,5,5,5Z"/>
</svg>