<?xml version="1.0" encoding="utf-8"?>
<svg version="1.1" id="_레이어_1" xmlns="http://www.w3.org/2000/svg" xmlns:xlink="http://www.w3.org/1999/xlink" x="0px"
     y="0px" width="500px" height="248px" viewBox="0 0 500 248" style="enable-background:new 0 0 500 248;" xml:space="preserve">
<style type="text/css">
	.st0{fill:#000000;}
	.st1{fill:#CF121B;}
</style>

<path d="M67.5,73.4c-28.9,0-46.2,13.2-46.2,33.1s17.3,33.1,46.2,33.1s46.2-13.1,46.2-33.1S96.4,73.4,67.5,73.4z M83.2,111.9
	c-3.1,2.8-8,4.3-15.7,4.3s-12.6-1.6-15.7-4.3c-1.4-1.3-2.3-3.1-2.3-5.4s0.8-4,2.3-5.3c3.1-2.8,8-4.3,15.7-4.3s12.6,1.6,15.7,4.3
	c1.4,1.3,2.3,3.1,2.3,5.3S84.7,110.6,83.2,111.9z" class="st0"/>

<path d="M10.5 149.2H124.5V173.2H10.5Z" class="st0"/>

<path d="M156.2,142.5c-2.8,8.3-6.5,15.7-10.9,22.9l-17.8-14.3c10.8-16.8,15.1-36,15.1-72.8h22.1c-0.2,14.8-1,27.1-2.5,37.9
	L156.2,142.5L156.2,142.5z" class="st0"/>

<path d="M162.2 116.2L167.8 126L159 146.9L156.2 142.5Z" class="st0"/>

<path d="M186.3,150.3c-2.8,7.7-6.1,14.6-10.1,21.1l-19.7-14.2c11.8-17.3,17.8-41.9,17.4-80.2h22.7c-0.1,17-1.2,31.6-3.2,44.4
	L186.3,150.3L186.3,150.3z" class="st0"/>

<path d="M193.4 121.5L207.3 147.5L195.3 166.5L186.3 150.3Z" class="st0"/>

<path d="M233.1 153V181.6H209.1V66.4H233.1V87Z" class="st0"/>

<path d="M233.1 87H246.3V112.8H233.1Z" class="st0"/>
<path d="M233.1 127.2H246.3V153H233.1Z" class="st0"/>

<path d="M310.7,73.4c-28.9,0-46.2,13.2-46.2,33.1s17.3,33.1,46.2,33.1s46.2-13.1,46.2-33.1S339.6,73.4,310.7,73.4z M326.4,111.9
	c-3.1,2.8-8,4.3-15.7,4.3s-12.6-1.6-15.7-4.3c-1.4-1.3-2.3-3.1-2.3-5.4s0.8-4,2.3-5.3c3.1-2.8,8-4.3,15.7-4.3s12.6,1.6,15.7,4.3
	c1.4,1.3,2.3,3.1,2.3,5.3S327.9,110.6,326.4,111.9z" class="st0"/>

<path d="M253.7 149.2H367.7V173.2H253.7Z" class="st0"/>

<path d="M399.4,142.5c-2.8,8.3-6.5,15.7-10.9,22.9l-17.8-14.3c10.8-16.8,15.1-36,15.1-72.8h22.1c-0.2,14.8-1,27.1-2.5,37.9
	L399.4,142.5L399.4,142.5z" class="st0"/>

<path d="M405.4 116.2L411 126L402.1 146.9L399.4 142.5Z" class="st0"/>

<path d="M429.5,150.3c-2.8,7.7-6.1,14.6-10.1,21.1l-19.7-14.2c11.8-17.3,17.8-41.9,17.4-80.2h22.7c-0.1,17-1.2,31.6-3.2,44.4
	L429.5,150.3L429.5,150.3z" class="st0"/>

<path d="M436.6 121.5L450.5 147.5L438.5 166.5L429.5 150.3Z" class="st0"/>

<path d="M476.3 153V181.6H452.3V66.4H476.3V87Z" class="st0"/>

<path d="M476.3 87H489.5V112.8H476.3Z" class="st0"/>
<path d="M476.3 127.2H489.5V153H476.3Z" class="st0"/>

<path class="st1" d="M68.2,90.4c-3,0-5.5-2.4-5.5-5.5s2.4-5.5,5.5-5.5s5.5,2.4,5.5,5.5C73.7,87.9,71.2,90.4,68.2,90.4z M68.2,80.4
	c-2.6,0-4.5,2-4.5,4.5s2,4.5,4.5,4.5s4.5-2,4.5-4.5C72.8,82.3,70.8,80.4,68.2,80.4z"/>
<path class="st1" d="M20.7,166.8c-3,0-5.5-2.4-5.5-5.5s2.4-5.5,5.5-5.5s5.5,2.4,5.5,5.5C26.2,164.3,23.7,166.8,20.7,166.8z
	 M20.7,156.8c-2.6,0-4.5,2-4.5,4.5s2,4.5,4.5,4.5s4.5-2,4.5-4.5C25.2,158.7,23.3,156.8,20.7,156.8z"/>
<path class="st1" d="M152.9,92.5c-3,0-5.5-2.4-5.5-5.5s2.4-5.5,5.5-5.5s5.5,2.4,5.5,5.5C158.4,90,155.9,92.5,152.9,92.5z
	 M152.9,82.5c-2.6,0-4.5,2-4.5,4.5s2,4.5,4.5,4.5s4.5-2,4.5-4.5C157.4,84.4,155.5,82.5,152.9,82.5z"/>
<path class="st1" d="M156.1,132.8c-3,0-5.5-2.4-5.5-5.5c0-3.1,2.4-5.4,5.5-5.4s5.5,2.4,5.5,5.4C161.6,130.4,159.1,132.8,156.1,132.8
	z M156.1,122.9c-2.6,0-4.5,2-4.5,4.5c0,2.5,2,4.5,4.5,4.5s4.5-2,4.5-4.5C160.6,124.8,158.7,122.9,156.1,122.9z"/>
<path class="st1" d="M184.8,92.2c-3,0-5.5-2.4-5.5-5.5s2.4-5.5,5.5-5.5s5.5,2.4,5.5,5.5C190.2,89.7,187.8,92.2,184.8,92.2z
	 M184.8,82.2c-2.6,0-4.5,2-4.5,4.5s2,4.5,4.5,4.5s4.5-2,4.5-4.5C189.3,84.1,187.4,82.2,184.8,82.2z"/>
<path class="st1" d="M189.2,141.8c-3,0-5.5-2.4-5.5-5.5s2.4-5.5,5.5-5.5s5.5,2.4,5.5,5.5C194.7,139.3,192.2,141.8,189.2,141.8z
	 M189.2,131.8c-2.6,0-4.5,2-4.5,4.5s2,4.5,4.5,4.5s4.5-2,4.5-4.5C193.8,133.7,191.8,131.8,189.2,131.8z"/>
<path class="st1" d="M221,82.8c-3,0-5.5-2.4-5.5-5.5s2.4-5.5,5.5-5.5s5.5,2.4,5.5,5.5C226.5,80.3,224,82.8,221,82.8z M221,72.8
	c-2.6,0-4.5,2-4.5,4.5s2,4.5,4.5,4.5s4.5-2,4.5-4.5C225.5,74.7,223.6,72.8,221,72.8z"/>
<path class="st1" d="M233.1,105.4c-3,0-5.5-2.4-5.5-5.5s2.4-5.5,5.5-5.5s5.5,2.4,5.5,5.5C238.6,102.9,236.1,105.4,233.1,105.4z
	 M233.1,95.4c-2.6,0-4.5,2-4.5,4.5s2,4.5,4.5,4.5s4.5-2,4.5-4.5C237.6,97.3,235.7,95.4,233.1,95.4z"/>
<path class="st1" d="M232.8,145.5c-3,0-5.5-2.4-5.5-5.5s2.4-5.5,5.5-5.5s5.5,2.4,5.5,5.5C238.2,143,235.8,145.5,232.8,145.5z
	 M232.8,135.5c-2.6,0-4.5,2-4.5,4.5s2,4.5,4.5,4.5s4.5-2,4.5-4.5C237.3,137.4,235.4,135.5,232.8,135.5z"/>
<path class="st1" d="M310.8,90.4c-3,0-5.5-2.4-5.5-5.5s2.4-5.5,5.5-5.5s5.5,2.4,5.5,5.5C316.2,87.9,313.8,90.4,310.8,90.4z
	 M310.8,80.4c-2.6,0-4.5,2-4.5,4.5s2,4.5,4.5,4.5s4.5-2,4.5-4.5C315.3,82.3,313.4,80.4,310.8,80.4z"/>
<path class="st1" d="M264.8,166.3c-3,0-5.5-2.4-5.5-5.5s2.4-5.5,5.5-5.5s5.5,2.4,5.5,5.5C270.2,163.8,267.8,166.3,264.8,166.3z
	 M264.8,156.3c-2.6,0-4.5,2-4.5,4.5s2,4.5,4.5,4.5s4.5-2,4.5-4.5C269.3,158.2,267.4,156.3,264.8,156.3z"/>
<path class="st1" d="M396.3,93.3c-3,0-5.5-2.4-5.5-5.5s2.4-5.5,5.5-5.5s5.5,2.4,5.5,5.5C401.8,90.8,399.3,93.3,396.3,93.3z
	 M396.3,83.3c-2.6,0-4.5,2-4.5,4.5s2,4.5,4.5,4.5s4.5-2,4.5-4.5C400.8,85.2,398.9,83.3,396.3,83.3z"/>
<path class="st1" d="M400.5,133.2c-3,0-5.5-2.4-5.5-5.5c0-3.1,2.4-5.5,5.5-5.5s5.5,2.4,5.5,5.5C406,130.7,403.5,133.2,400.5,133.2z
	 M400.5,123.2c-2.6,0-4.5,2-4.5,4.6c0,2.5,2,4.5,4.5,4.5s4.5-2,4.5-4.5C405,125.1,403.1,123.2,400.5,123.2z"/>
<path class="st1" d="M428.2,92.2c-3,0-5.5-2.4-5.5-5.5s2.4-5.5,5.5-5.5s5.5,2.4,5.5,5.5C433.7,89.7,431.2,92.2,428.2,92.2z
	 M428.2,82.2c-2.6,0-4.5,2-4.5,4.5s2,4.5,4.5,4.5s4.5-2,4.5-4.5C432.8,84.1,430.8,82.2,428.2,82.2z"/>
<path class="st1" d="M431.5,141c-3,0-5.5-2.4-5.5-5.5s2.4-5.5,5.5-5.5s5.5,2.4,5.5,5.5C437,138.5,434.5,141,431.5,141z M431.5,131
	c-2.6,0-4.5,2-4.5,4.5s2,4.5,4.5,4.5s4.5-2,4.5-4.5C436,132.9,434.1,131,431.5,131z"/>
<path class="st1" d="M464.5,82.3c-3,0-5.5-2.4-5.5-5.5s2.4-5.5,5.5-5.5s5.5,2.4,5.5,5.5C470,79.8,467.5,82.3,464.5,82.3z
	 M464.5,72.3c-2.6,0-4.5,2-4.5,4.5s2,4.5,4.5,4.5s4.5-2,4.5-4.5C469,74.2,467.1,72.3,464.5,72.3z"/>
<path class="st1" d="M475.7,105.4c-3,0-5.5-2.4-5.5-5.5s2.4-5.5,5.5-5.5s5.5,2.4,5.5,5.5C481.2,102.9,478.7,105.4,475.7,105.4z
	 M475.7,95.4c-2.6,0-4.5,2-4.5,4.5s2,4.5,4.5,4.5s4.5-2,4.5-4.5C480.2,97.3,478.3,95.4,475.7,95.4z"/>
<path class="st1" d="M476.3,145.3c-3,0-5.5-2.4-5.5-5.5s2.4-5.5,5.5-5.5s5.5,2.4,5.5,5.5C481.8,142.9,479.3,145.3,476.3,145.3z
	 M476.3,135.3c-2.6,0-4.5,2-4.5,4.5s2,4.5,4.5,4.5s4.5-2,4.5-4.5S478.9,135.3,476.3,135.3z"/>
</svg>
