<?xml version="1.0" encoding="utf-8"?>
<!-- Generator: Adobe Illustrator 27.6.1, SVG Export Plug-In . SVG Version: 6.00 Build 0)  -->
<svg version="1.1" id="_레이어_2" xmlns="http://www.w3.org/2000/svg" xmlns:xlink="http://www.w3.org/1999/xlink" x="0px"
	 y="0px" viewBox="0 0 248 200" style="enable-background:new 0 0 248 200;" xml:space="preserve">
<path class="st0" d="M57,84.6l15.5,1.2c1.5,0.1,2.8-0.9,3-2.3c1.7-10.2,2.3-23.5,2.3-37.5c0-1.6-1.3-2.8-2.8-2.8l-61,0
	c-1.6,0-2.8,1.3-2.8,2.8v11.3c0,1.6,1.3,2.8,2.8,2.8l39.3,0c1.6,0,2.9,1.3,2.8,2.9c-0.2,5.5-0.8,13-1.7,18.3
	C54.1,83,55.3,84.5,57,84.6z"/>
<path class="st0" d="M42.8,73.9H27.4c-1.6,0-2.8,1.3-2.8,2.8v22.9c0,1.6,1.3,2.9,2.9,2.8l15.4-0.6c1.5-0.1,2.7-1.3,2.7-2.8V76.7
	C45.7,75.2,44.4,73.9,42.8,73.9z"/>
<path class="st0" d="M82.2,104.3l-0.9-10.5c-0.1-1.6-1.5-2.8-3.1-2.6c-8,0.9-25.9,1.8-32.6,2L24.6,94c-5.5,0.1-11.1,0.1-17.7,0
	c-1.7,0-3.1,1.5-2.9,3.2l1.3,11.7c0.2,1.4,1.4,2.5,2.8,2.5c10.5,0,26.6-0.6,37-1.2c12.4-0.7,26.8-1.9,34.6-2.8
	C81.3,107.1,82.4,105.8,82.2,104.3z"/>
<path class="st0" d="M106,36.5H89.8c-1.6,0-2.8,1.3-2.8,2.8v70.8c0,1.6,1.3,2.8,2.8,2.8H106c1.6,0,2.8-1.3,2.8-2.8V85.7V67.5V39.3
	C108.9,37.7,107.6,36.5,106,36.5z"/>
<path class="st0" d="M102.3,85.7h17c1.6,0,2.8-1.3,2.8-2.8V70.4c0-1.6-1.3-2.8-2.8-2.8h-17c-1.6,0-2.8,1.3-2.8,2.8v12.5
	C99.4,84.5,100.7,85.7,102.3,85.7z"/>
<path class="st0" d="M63.3,114.4c-30.7,0-46.6,9.7-46.6,24.3c0,15,16.2,24.8,46.3,24.8c30.4,0,46.6-9.8,46.6-24.8
	C109.7,123.8,93.9,114.4,63.3,114.4z M63.1,146.7c-15.5,0-23.1-4.1-23.1-8c0-3.9,8-7.6,23.1-7.6c15.4,0,23.1,4,23.1,7.6
	C86.2,142.5,78.2,146.7,63.1,146.7z"/>
<path class="st0" d="M165.9,87.3v-3.1v-5V46.6v-1.7v-2.2h-8.5c-1.6,0-2.8,1.3-2.8,2.8v11.1c0,17-9.5,31.3-26.2,38.2
	c-1.7,0.7-2.3,2.7-1.3,4.2l8.8,12.8c0.8,1.1,2.2,1.5,3.4,1C149.8,108.6,162.1,97.9,165.9,87.3z"/>
<path class="st0" d="M194.3,109.3l8.5-12.9c1-1.5,0.3-3.5-1.3-4.2C187,86.3,177,74.2,177,55.5v-9.9c0-1.6-1.3-2.8-2.8-2.8h-8.2v44.6
	c4.4,9.5,15.8,19.3,24.8,23.1C192,110.9,193.5,110.5,194.3,109.3z"/>
<path class="st0" d="M225.8,36.5h-16.2c-1.6,0-2.8,1.3-2.8,2.8v86.6c0,1.6,1.3,2.8,2.8,2.8h16.2c1.6,0,2.8-1.3,2.8-2.8V89.7V71.5
	V39.3C228.6,37.7,227.3,36.5,225.8,36.5z"/>
<path class="st0" d="M217.3,71.5v18.2h23c1.6,0,2.8-1.3,2.8-2.8V74.4c0-1.6-1.3-2.8-2.8-2.8H217.3z"/>
<path class="st0" d="M162.2,118.7h-16.5c-1.6,0-2.8,1.3-2.8,2.8v37.1c0,1.6,1.3,2.8,2.8,2.8h81.7c1.6,0,2.8-1.3,2.8-2.8v-11.5
	c0-1.6-1.3-2.8-2.8-2.8h-59.5c-1.6,0-2.8-1.3-2.8-2.8v-20C165,119.9,163.7,118.7,162.2,118.7z"/>
</svg>
