<?xml version="1.0" encoding="utf-8"?>
<!-- Generator: Adobe Illustrator 26.5.3, SVG Export Plug-In . SVG Version: 6.00 Build 0)  -->
<svg version="1.1" id="_레이어_1" xmlns="http://www.w3.org/2000/svg" xmlns:xlink="http://www.w3.org/1999/xlink" x="0px"
	 y="0px" width="500px" height="248px" viewBox="0 0 500 248" style="enable-background:new 0 0 500 248;" xml:space="preserve">
<style type="text/css">
	.st0{fill:#000000;}
	.st1{fill:#CF121B;}
</style>
<path class="st0" d="M113.3,68v54.6H87.5V68H113.3z"/>
<path class="st0" d="M172.7,68v54.6h-25.8V68H172.7z"/>
<path class="st0" d="M109.7,78.4h39.5v18.3h-39.5V78.4z"/>
<path class="st0" d="M87.4,104.3h85.2v18.3H87.4V104.3z"/>
<path class="st0" d="M73,128.5h114v21.1H73V128.5z"/>
<path class="st0" d="M143.2,149.7v30h-26.4v-30H143.2z"/>
<path class="st0" d="M266.6,94v22.3h25.2V73.7h-84.9v20.4L266.6,94L266.6,94z"/>
<path class="st0" d="M208,98.1h83.7v18.2H208V98.1z"/>
<path class="st0" d="M233.2,98v22.3h62.5v20.6H208V98H233.2z"/>
<path class="st0" d="M192.9,149.1h114v22.8h-114V149.1z"/>
<path class="st0" d="M386.3,94v22.3h25.2V73.7h-85v20.4L386.3,94L386.3,94z"/>
<path class="st0" d="M327.8,98.1h83.7v18.2h-83.7V98.1z"/>
<path class="st0" d="M352.9,98v22.3h62.6v20.6h-87.8V98H352.9L352.9,98z"/>
<path class="st0" d="M312.7,149.1h114v22.8h-114V149.1z"/>
<path class="st1" d="M100.2,82c2.7,0,5-2.2,5-5s-2.2-5-5-5s-5,2.2-5,5S97.5,82,100.2,82z"/>
<path class="st1" d="M159.8,82c2.7,0,5-2.2,5-5s-2.2-5-5-5c-2.8,0-5,2.2-5,5S157.1,82,159.8,82z"/>
<path class="st1" d="M113.3,92.6c2.7,0,5-2.2,5-5s-2.2-5-5-5s-5,2.2-5,5S110.6,92.6,113.3,92.6z"/>
<path class="st1" d="M100.6,116.8c2.7,0,5-2.2,5-5s-2.2-5-5-5s-5,2.2-5,5S97.9,116.8,100.6,116.8z"/>
<path class="st1" d="M83.6,143.8c2.7,0,5-2.2,5-5s-2.2-5-5-5s-5,2.2-5,5S80.9,143.8,83.6,143.8z"/>
<path class="st1" d="M130,154.5c2.7,0,5-2.2,5-5s-2.2-5-5-5s-5,2.2-5,5S127.3,154.5,130,154.5z"/>
<path class="st1" d="M217,88.4c2.7,0,5-2.2,5-5s-2.2-5-5-5s-5,2.2-5,5S214.3,88.4,217,88.4z"/>
<path class="st1" d="M221,111.7c2.7,0,5-2.2,5-5s-2.2-5-5-5s-5,2.2-5,5S218.3,111.7,221,111.7z"/>
<path class="st1" d="M221,123.2c2.7,0,5-2.2,5-5s-2.2-5-5-5s-5,2.2-5,5S218.3,123.2,221,123.2z"/>
<path class="st1" d="M203.7,165.5c2.7,0,5-2.2,5-5s-2.2-5-5-5s-5,2.2-5,5S201,165.5,203.7,165.5z"/>
<path class="st1" d="M337,88c2.7,0,5-2.2,5-5s-2.2-5-5-5s-5,2.2-5,5S334.3,88,337,88z"/>
<path class="st1" d="M342.1,111.5c2.7,0,5-2.2,5-5s-2.2-5-5-5s-5,2.2-5,5S339.4,111.5,342.1,111.5z"/>
<path class="st1" d="M342.1,123c2.7,0,5-2.2,5-5s-2.2-5-5-5s-5,2.2-5,5S339.4,123,342.1,123z"/>
<path class="st1" d="M323.3,165.3c2.7,0,5-2.2,5-5s-2.2-5-5-5s-5,2.2-5,5S320.6,165.3,323.3,165.3z"/>
</svg>
