<?xml version="1.0" encoding="utf-8"?>
<!-- Generator: Adobe Illustrator 27.6.1, SVG Export Plug-In . SVG Version: 6.00 Build 0)  -->
<svg version="1.1" id="레이어_1" xmlns="http://www.w3.org/2000/svg" xmlns:xlink="http://www.w3.org/1999/xlink" x="0px"
	 y="0px" viewBox="0 0 200 248" style="enable-background:new 0 0 200 248;" xml:space="preserve">
<style type="text/css">
	.st0{fill:#FF7196;}
	.st1{fill:none;stroke:#CF121B;stroke-width:0.945;stroke-linecap:round;stroke-miterlimit:10;}
	.st2{fill:none;stroke:#0000FF;stroke-width:0.945;stroke-linecap:round;stroke-miterlimit:10;}
</style>
<path class="st0" d="M63.6,105.3V95.1V62.6V28.2H30.8c-3.3,0-6,2.7-6,6v181.1c0,3.3,2.7,6,6,6h32.8l0,0v-34.4v-47V105.3z"/>
<path class="st0" d="M171.3,28.2H63.6v34.4h74.9v38.6v4.1v34.6v47v34.4h32.7c3.3,0,6-2.7,6-6V34.2C177.3,30.9,174.6,28.2,171.3,28.2
	z"/>
<path class="st0" d="M147.6,139.8H59.8c-1.1,0-2-0.9-2-2v-30.4c0-1.1,0.9-2,2-2h87.8c1.1,0,2,0.9,2,2v30.4
	C149.6,138.9,148.7,139.8,147.6,139.8z"/>
<path class="st0" d="M147.6,221.5H59.8c-1.1,0-2-0.9-2-2v-30.4c0-1.1,0.9-2,2-2h87.8c1.1,0,2,0.9,2,2v30.4
	C149.6,220.6,148.7,221.5,147.6,221.5z"/>
<path class="st1" d="M44.2,64.5c9.4,0,17.5-7.7,17.5-17.5c0-9.4-7.7-17.5-17.5-17.5c-9.4,0-17.5,7.7-17.5,17.5S34.8,64.5,44.2,64.5z
	"/>
<path class="st2" d="M44.2,219.7c10.3,0,18.1-8.3,18.1-18.1c0-10.3-8.3-18.1-18.1-18.1c-10.3,0-18.1,8.3-18.1,18.1
	S33.9,219.7,44.2,219.7z"/>
<path class="st1" d="M68.2,63.1c9.4,0,17.5-7.7,17.5-17.5c0-9.4-7.7-17.5-17.5-17.5c-9.4,0-17.5,7.7-17.5,17.5S58.7,63.1,68.2,63.1z
	"/>
<path class="st2" d="M157.4,219.7c10.3,0,18.1-8.3,18.1-18.1c0-10.3-8.3-18.1-18.1-18.1c-10.3,0-18.1,8.3-18.1,18.1
	S147.1,219.7,157.4,219.7z"/>
<path class="st1" d="M72.9,140.1c9.4,0,17.5-7.7,17.5-17.5c0-9.4-7.7-17.5-17.5-17.5c-9.4,0-17.5,7.7-17.5,17.5
	C55.5,132.4,63.5,140.1,72.9,140.1z"/>
<path class="st2" d="M133.8,140.7c10.3,0,18.1-8.3,18.1-18.1c0-10.3-8.3-18.1-18.1-18.1c-10.3,0-18.1,8.3-18.1,18.1
	C115.7,132.5,123.6,140.7,133.8,140.7z"/>
<path class="st1" d="M79.1,221.3c9.4,0,17.5-7.7,17.5-17.5c0-9.4-7.7-17.5-17.5-17.5c-9.4,0-17.5,7.7-17.5,17.5
	S69.7,221.3,79.1,221.3z"/>
<path class="st2" d="M135.3,222.4c10.3,0,18.1-8.3,18.1-18.1c0-10.3-8.3-18.1-18.1-18.1c-10.3,0-18.1,8.3-18.1,18.1
	S125.1,222.4,135.3,222.4z"/>
</svg>
